<?xml version="1.0" encoding="utf-8"?>
<!-- Generator: Adobe Illustrator 19.2.1, SVG Export Plug-In . SVG Version: 6.00 Build 0)  -->
<svg version="1.1" id="layer" xmlns="http://www.w3.org/2000/svg" xmlns:xlink="http://www.w3.org/1999/xlink" x="0px" y="0px"
	 viewBox="0 0 652 652" style="enable-background:new 0 0 652 652;" xml:space="preserve">
<style type="text/css">
	.st0{fill:#005F9E;}
</style>
<path class="st0" d="M162.9,265.1h77.8v21.1h-25.1v89.2h-28.4v-89.2h-25.1v-21.1H162.9z"/>
<path class="st0" d="M229.4,297.5h24.3v12.2c3.2-9.7,14.6-13.8,24.3-13.8V321c-3.2-1.6-6.5-2.4-10.5-2.4c-8.1,0-11.4,2.4-13.8,5.7
	v50.3h-25.1v-77H229.4z M285.3,297.5h25.1v77.8h-25.1V297.5z M318.6,297.5h25.1V308c5.7-8.1,13-12.2,21.9-12.2
	c7.3,0,15.4,4.9,15.4,12.2c5.7-8.1,13-12.2,21.9-12.2c9.7,0,17.8,5.7,17.8,17v63.2h-25.1v-55.9c0-4.1-1.6-7.3-5.7-7.3
	c-2.4,0-4.9,0.8-6.5,3.2l-1.6,1.6v56.8h-25.1v-54.3c0-4.1-1.6-7.3-5.7-7.3c-2.4,0-4.9,0.8-6.5,3.2l-1.6,1.6v56.8h-25.1v-77
	C317.8,297.5,318.6,297.5,318.6,297.5z M430.5,265.1h25.1v37.3c3.2-4.1,9.7-6.5,15.4-6.5c17,0,26.8,17,26.8,39.7
	c0,17.8-7.3,40.5-28.4,40.5c-9.7,0-16.2-4.9-21.1-12.2l-4.9,11.4h-13C430.5,375.3,430.5,265.1,430.5,265.1z M455.6,350.2
	c-0.8,6.5,3.2,9.7,8.1,9.7c7.3,0,8.1-7.3,8.1-21.1v-5.7c0-15.4,0-23.5-8.1-23.5c-3.2,0-5.7,1.6-7.3,3.2l-1.6,1.6v35.7
	C454.8,350.2,455.6,350.2,455.6,350.2z M505.1,265.1h25.1v110.3h-25.1C505.1,375.3,505.1,265.1,505.1,265.1z M561.8,339.7
	c0,6.5,1.6,18.6,11.4,18.6c5.7,0,11.4-4.1,13-10.5l17,6.5c-0.8,3.2-8.9,21.1-31.6,21.1c-24.3,0-34.9-19.5-34.9-41.4
	s11.4-40.5,34.9-40.5c24.3,0,32.4,21.1,32.4,41.4v5.7h-42.2C561.8,340.5,561.8,339.7,561.8,339.7z M580.5,325.1
	c0-7.3-0.8-15.4-9.7-15.4c-7.3,0-8.9,8.1-8.9,15.4H580.5L580.5,325.1z M285.3,264.2h25.1V287h-25.1
	C285.3,287,285.3,264.2,285.3,264.2z M111.8,348.6c0,1.6-0.8,3.2-1.6,4.9v1.6c-0.8,0.8-1.6,1.6-2.4,1.6c-5.7,4.9-10.5,7.3-17.8,9.7
	c-2.4,0.8-8.1,2.4-15.4,2.4L64,374.5c13,3.2,23.5,0,28.4-0.8c8.1-2.4,13-5.7,19.5-11.4c1.6-0.8,8.1-7.3,13-16.2
	c0.8-1.6,1.6-3.2,2.4-5.7C127.2,340.5,111.8,348.6,111.8,348.6z M74.5,272.4h3.2c-1.6,0-2.4,0-4.1,0.8l9.7,4.9
	c7.3,0,15.4,3.2,20.3,8.9c-0.8,0-2.4,0-3.2,0.8l16.2,8.9v-0.8l1.6,1.6l10.5,5.7v-3.2c-3.2-8.9-8.9-17-17-22.7l-0.8-0.8
	c-12.2-8.9-24.3-11.4-30-11.4H68.8c-1.6,0-3.2,0.8-4.1,0.8c-0.8,0-1.6,0.8-2.4,0.8l9.7,5.7C72.1,272.4,74.5,272.4,74.5,272.4z
	 M31.5,338c-1.6-4.1-2.4-8.9-2.4-10.5c-0.8-4.9-0.8-4.9-0.8-8.9v-4.9c0.8-3.2,1.6-7.3,4.1-12.2V287c-1.6,2.4-3.2,4.9-4.9,8.1
	c-4.1,7.3-4.9,13-5.7,17.8c0,1.6-0.8,4.1-0.8,5.7c0,4.9,0,4.9,0.8,9.7c0,3.2,1.6,8.9,4.1,13.8c1.6,3.2,3.2,6.5,4.9,8.9
	c0,0,0,0.8,0.8,0.8l0.8,0.8v-16.2C32.4,337.2,32.4,337.2,31.5,338z"/>
<path class="st0" d="M113.4,312.1c-0.8,0.8-1.6,2.4-2.4,3.2c2.4,4.9,4.9,9.7,6.5,14.6c0.8-0.8,0.8-1.6,1.6-2.4
	c4.1-7.3,4.9-16.2,2.4-24.3c0,0,0-0.8-0.8-0.8c0-0.8-0.8-1.6-0.8-2.4l-0.8-0.8c0-0.8-0.8-0.8-0.8-1.6l-1.6-0.8
	C117.5,301.5,116.7,307.2,113.4,312.1z M70.5,272.4c-2.4,0-4.9,0.8-7.3,1.6c1.6,0.8,4.1,0.8,5.7,1.6l4.9-2.4l-1.6-0.8
	C72.1,272.4,70.5,272.4,70.5,272.4z M128,339.7l34.1-18.6l-33.2-17.8C133.7,317.8,131.3,329.9,128,339.7z M81,278.8
	c-1.6,0-2.4,0.8-4.1,0.8c4.9,2.4,9.7,5.7,13.8,9.7c3.2-0.8,6.5-1.6,8.9-1.6L83.4,278C82.6,278,81.8,278.8,81,278.8z M97.2,348.6
	c-19.5,2.4-38.9-6.5-51.1-21.1c-4.1,5.7-7.3,10.5-8.9,15.4v4.9c0.8,0.8,1.6,2.4,2.4,3.2c2.4,3.2,10.5,11.4,22.7,14.6
	c4.1,1.6,8.9,1.6,12.2,1.6l36.5-19.5c0-1.6,0.8-3.2,0.8-4.9C107.8,346.1,102.9,347.8,97.2,348.6z M46.9,316.1
	c4.1-4.1,8.9-8.1,14.6-12.2c0-0.8,0-1.6-0.8-2.4c-2.4-6.5-1.6-13.8,1.6-19.5l0.8-0.8c-4.1-0.8-7.3-1.6-10.5-0.8
	c-2.4,1.6-4.1,3.2-5.7,5.7c-2.4,4.9-3.2,9.7-3.2,14.6c0,3.2,0.8,7.3,1.6,10.5C46.1,312.9,46.1,314.5,46.9,316.1z M68,299.1
	C68,299.9,68,299.9,68,299.1c4.9-1.6,9.7-4.9,15.4-6.5c-4.9-4.1-8.9-6.5-13-8.9c-0.8,0.8-1.6,1.6-1.6,2.4
	C66.4,290.2,65.6,294.2,68,299.1z M95.6,315.3c2.4,0,4.9-0.8,6.5-2.4c-3.2-5.7-8.1-11.4-13-16.2c-0.8,0-1.6,0.8-2.4,0.8
	c-4.9,3.2-10.5,5.7-14.6,8.9C76.9,312.9,86.7,317,95.6,315.3z M48.6,272.4c4.1-2.4,7.3-4.1,13.8-5.7l-30-16.2V287
	C38.8,278,46.9,273.2,48.6,272.4z M107.8,308c2.4-3.2,2.4-8.1,0.8-13c0-0.8,0-0.8-0.8-0.8c-3.2,0-7.3,0.8-11.4,1.6
	C100.5,299.1,104.5,304,107.8,308C107.8,308.8,107.8,308,107.8,308z"/>
<path class="st0" d="M96.4,341.3c5.7-0.8,11.4-3.2,15.4-5.7c-0.8-4.9-3.2-10.5-5.7-16.2c-3.2,1.6-6.5,3.2-9.7,3.2
	c-11.4,1.6-23.5-3.2-30.8-12.2c-5.7,4.1-10.5,8.1-14.6,12.2C61.5,335.6,79.4,343.7,96.4,341.3z M42.1,321.8
	c-1.6-2.4-2.4-4.9-3.2-8.1c-3.2-7.3-3.2-14.6-1.6-21.9c-0.8,2.4-2.4,4.1-3.2,6.5c-0.8,0.8-1.6,1.6-1.6,3.2v35.7
	C34,332.4,38,326.7,42.1,321.8z M121.5,336.4l-2.4,2.4v2.4L121.5,336.4z M34.8,355.9c-0.8-0.8-1.6-1.6-2.4-3.2v38.1l32.4-17.8
	c-0.8,0-2.4-0.8-3.2-0.8C46.1,368.8,38,359.9,34.8,355.9z M604.8,368c0-4.1,3.2-8.1,8.1-8.1c4.1,0,8.1,3.2,8.1,8.1
	c0,4.1-3.2,8.1-8.1,8.1C608,376.1,604.8,372.1,604.8,368z M606.4,368c0,3.2,3.2,6.5,6.5,6.5c3.2,0,6.5-2.4,6.5-6.5
	c0-3.2-3.2-6.5-6.5-6.5C608.8,361.5,606.4,364,606.4,368z M616.9,372.1h-1.6l-2.4-4.1h-1.6v4.1h-1.6v-8.9h4.1c0.8,0,1.6,0,2.4,0.8
	c0.8,0,0.8,0.8,0.8,1.6c0,1.6-1.6,2.4-3.2,2.4L616.9,372.1L616.9,372.1z M612.1,367.2c1.6,0,3.2,0,3.2-1.6c0-0.8-0.8-1.6-2.4-1.6
	h-2.4v2.4h1.6L612.1,367.2L612.1,367.2z M131.3,368c0-4.1,3.2-8.1,8.1-8.1c4.1,0,8.1,3.2,8.1,8.1c0,4.1-3.2,8.1-8.1,8.1
	C135.3,376.1,131.3,372.1,131.3,368z M132.9,368c0,3.2,3.2,6.5,6.5,6.5c3.2,0,6.5-2.4,6.5-6.5c0-3.2-3.2-6.5-6.5-6.5
	C136.1,361.5,132.9,364,132.9,368z M143.4,372.1h-1.6l-2.4-4.1h-1.6v4.1h-1.6v-8.9h4.1c0.8,0,1.6,0,2.4,0.8c0.8,0,0.8,0.8,0.8,1.6
	c0,1.6-1.6,2.4-3.2,2.4C140.2,368,143.4,372.1,143.4,372.1z M139.4,367.2c1.6,0,3.2,0,3.2-1.6c0-0.8-0.8-1.6-2.4-1.6h-2.4v2.4h1.6
	C139.4,366.4,139.4,367.2,139.4,367.2z"/>
</svg>
