<?xml version="1.0" encoding="utf-8"?>
<!-- Generator: Adobe Illustrator 19.0.0, SVG Export Plug-In . SVG Version: 6.00 Build 0)  -->
<svg version="1.1" id="Layer_1" xmlns="http://www.w3.org/2000/svg" xmlns:xlink="http://www.w3.org/1999/xlink" x="0px" y="0px"
	 viewBox="0 0 500 500" style="enable-background:new 0 0 500 500;" xml:space="preserve">
<style type="text/css">
	.st0{fill:#231F20;}
	.st1{fill:url(#XMLID_48_);}
	.st2{fill:url(#XMLID_49_);}
	.st3{fill:url(#XMLID_53_);}
	.st4{fill:url(#XMLID_54_);}
</style>
<g id="XMLID_1_">
	<path id="XMLID_9_" class="st0" d="M420.5,183.1c-6.8,0-11.7,5.4-11.7,11.4c0,6,4.9,11.4,11.7,11.4c6.7,0,12-4.9,12-11.4
		C432.5,188,427.3,183.1,420.5,183.1z M252.8,217.2c-21.5,0-38.6,14.9-38.6,37.3c0,22.3,17.2,37.3,38.6,37.3c9.8,0,19-3,26.7-10.5
		l-11.2-11.2c-4.2,4.4-9.5,7.5-17.2,7.5c-9.9,0-17.9-6.4-19.1-16.9h54.2v-4.9C286.1,231.1,272.7,217.2,252.8,217.2z M321.7,217.2
		c-14.4,0-28.6,7.1-28.6,22.9c0,27.1,38.3,15.5,38.3,30.2c0,5.6-6.7,8.1-11.8,8.1c-7.5,0-12.3-3.7-16.8-8.7l-11.5,11.5
		c7.2,7.8,16.5,10.6,27.3,10.6c14.5,0,30.6-5.9,30.6-22.8c0-27.7-38.3-17.3-38.3-30c0-5.3,5.6-7.6,10.4-7.6c6,0,10.5,2.5,13.9,7.2
		l11.3-11.3C340.6,220,330.9,217.2,321.7,217.2z M396.5,217.2c-9.3,0-17.2,4.9-21,13h-0.3V219h-17.8v71h17.8v-38
		c0-3.8,2.4-17.9,19.1-17.9c2.6,0,5.1,0.5,7.8,1.1l0.7-17C400.7,217.6,398.7,217.2,396.5,217.2z M411.8,219v71h17.8v-71H411.8z
		 M250.3,230.5c11.1,0,17.9,6.5,18.1,16.9h-36.4C233.3,237.2,239.8,230.5,250.3,230.5z"/>
	
		<radialGradient id="XMLID_48_" cx="-4.8163" cy="-0.1931" r="2.3628" gradientTransform="matrix(16.5126 0 0 16.5126 193.6331 246.26)" gradientUnits="userSpaceOnUse">
		<stop  offset="0" style="stop-color:#BFE6F9"/>
		<stop  offset="1" style="stop-color:#1478C7"/>
	</radialGradient>
	<path id="XMLID_10_" class="st1" d="M76.7,253.3c0,30.4,24.6,55,55,55c30.4,0,55-24.6,55-55c0-30.4-24.6-55-55-55
		C101.3,198.3,76.7,222.9,76.7,253.3"/>
	
		<radialGradient id="XMLID_49_" cx="-3.9952" cy="-0.1495" r="2.3628" gradientTransform="matrix(20.2582 0 0 20.2582 192.8677 246.6434)" gradientUnits="userSpaceOnUse">
		<stop  offset="0" style="stop-color:#A6D71C"/>
		<stop  offset="0.9607" style="stop-color:#23A03D"/>
		<stop  offset="1" style="stop-color:#23A03D"/>
	</radialGradient>
	<path id="XMLID_11_" class="st2" d="M108.5,210c-4.2,0.2-8.3,0.7-12.4,1.3c-11.5,9.7-18.9,24.1-19.4,40.2
		c3.2,3.4,7.5,11.1,12.5,15.6c0.7-0.3,1.4-0.5,2.1-0.8c-2.4-2.8-5.8-6.5-6.3-8.3c-2.5-8.4,0.4-16.3,6.6-16.9
		c5.6-0.6,10.4-8.9,14.3-14.4c8.1-11.2,20.6-9.4,20-15c-0.7-3.3-2.7-4.3-5.1-4.3C117.1,207.6,112.2,209.8,108.5,210"/>
	
		<radialGradient id="XMLID_53_" cx="-2.8796" cy="-0.1949" r="2.3628" gradientTransform="matrix(25.748 0 0 25.748 198.1741 245.5065)" gradientUnits="userSpaceOnUse">
		<stop  offset="0" style="stop-color:#A6D71C"/>
		<stop  offset="0.9607" style="stop-color:#23A03D"/>
		<stop  offset="1" style="stop-color:#23A03D"/>
	</radialGradient>
	<path id="XMLID_12_" class="st3" d="M93.7,265.7c-0.8,0.2-1.6,0.4-2.4,0.7c-0.7,0.2-1.2,0.4-2.1,0.8c-2,0.9-3.5,2.3-3.8,5.2
		c-0.6,5.3,4.5,9.5,8.7,10.8c5.4,1.6,5.9-0.3,8.7,3.6c2,2.7,2.4,7.7,3.4,11c0.6,1.8,1.3,3.7,2.3,5.5c3.9,1.8,8,3.2,12.3,4
		c1.1-6.3,0.6-14.9,2-18.6c2.9-7.6,4.5-10.9,0.6-18.7c-8.6-2.4-11.3-3.2-20-5c-1.8-0.4-2.9-0.5-3.9-0.5
		C98.1,264.4,96.8,264.8,93.7,265.7"/>
	
		<radialGradient id="XMLID_54_" cx="-2.09" cy="-0.5744" r="2.3628" gradientTransform="matrix(34.0339 0 0 34.0339 199.6218 234.0795)" gradientUnits="userSpaceOnUse">
		<stop  offset="0" style="stop-color:#A6D71C"/>
		<stop  offset="0.9607" style="stop-color:#23A03D"/>
		<stop  offset="1" style="stop-color:#23A03D"/>
	</radialGradient>
	<path id="XMLID_13_" class="st4" d="M147.2,221.9c-2.5,3.6-11.5,4.6-14.4,8.7c-2.2,3.2,0.1,9.5-1.9,13.1c-0.9,1.7-0.5,6.5,0.6,8.1
		c3.4,5,9.2,2.2,13.5,4c5.2,2.2,5.9,8.3,10.2,12.7c4.4,4.5-5.6,11.3,2.5,27.6c0.9,1.7,1.9,3,3,3.9c5.5-3.4,10.3-7.8,14.3-12.8
		c1.2-8.2-1.5-10.8,1.9-18.3c2.1-4.6,5.8-12.6,9.7-18.1c-0.7-15.2-7.5-28.8-18-38.3c-1,0.3-2.2,0.3-4,0c-1.5-0.3-2.8-0.4-4-0.4
		C152.5,212.1,150.1,217.7,147.2,221.9"/>
	<path id="XMLID_33_" class="st0" d="M125.4,311.7c-1.8-1-4.1-2.7-6.2-4.1c-0.9,0.8-1.6,1.9-2.3,2.9
		C119.3,311.3,122.6,311.3,125.4,311.7 M115.8,305.1c-3.9-2.9-13.6-12.1-17.6-17.6c-1.5,0.9-3.1,3.2-5.2,3.6
		c-0.8,0.2-2.7,0.4-3.3,0.2c-0.6-0.2,0.1-1.4,0.7-2.2c1-1.4,2.6-3.1,4.8-4.9c-4.8-7-7-12.1-10.3-20.5c-1.9,1.2-3.2,2.2-4.9,3.5
		c-0.5,0.4-2.1,0.7-2.8,0c-1.3-1.2-1.4-3.3,0.5-4.6c0.8-0.6,4.6-3.2,5.5-3.9c-2.3-6.7-4.3-15.6-4.8-20.2c-1.6,1.4-3.8,2.9-4.4,3.3
		c-0.9,0.3-1.5,0-1.7-0.1c-0.9,9.5,0.1,20.1,3,29.5c4.9,16.3,18.6,31.9,37,37.7C112.8,308.4,114.9,305.9,115.8,305.1 M77.9,233.6
		c-0.2-3.5-0.5-8.4-0.5-8.4c-2.6,5.6-4.1,9-4.9,15.6C74.4,237.7,77.9,233.6,77.9,233.6 M105.6,193.3c10.7-4.4,21.2-6.9,33.2-5.2
		c1.3,0.2,1.2,1.3-0.2,1.3l-1.7,0c-9.7,0.2-24,3.2-31.4,7.4c-0.2,4.9,0.8,12.8,1.8,18.9c6.7-2.8,17.1-5.7,25-6.6
		c-4.5-4.8-10.6-9.3-11.3-9.8c-0.7-0.5-1.1-1.4-1.1-2.6c0.1-2.1,1.9-2.4,2.9-2.2c3.3-0.6,6.5-1.3,12.1-1.2
		c23.5-1,44.9,12.3,53.1,27.4c20.7,32.8,0,78-27.1,90.1c-11.6,5.2-21.6,7.4-39.9,4.8c-18.4-2.6-33.4-11.6-45.1-30.5
		c-14.4-23.3-6.3-50.4-4.3-56.1C80.3,208.8,94.5,198,105.6,193.3 M81.3,218.1c-0.3,2.5,0,7,0.6,12.4c5-4.5,14.6-10.3,22.7-13.9
		c-0.9-6.1-1.9-15.9-1.8-18.6c-7.5,4.1-15.6,12.3-21.6,20.8 M82.4,235.4c0.7,4.9,3,15.4,5.1,20.7c5-3.8,16.3-10.7,22.7-13.6
		c-2.2-8.2-3.7-13.3-5-21.5C96.3,225.1,86.7,231.3,82.4,235.4 M89.5,260.8c3,8.5,5.8,14.9,9.6,20.2c4.4-3.8,13.4-9.8,20.2-13.1
		c-2.3-4.9-5.5-14-7.8-20.8C102.7,251.6,96.1,255.8,89.5,260.8 M101.9,284.8c4.7,6,11.9,13.5,17,17.7c4.8-3.9,10.2-7.5,14.8-9.7
		c-3.9-6.1-9.7-14.8-12.1-20.3C112.9,276.4,108,279.6,101.9,284.8 M121.9,305.1c1.8,1.9,9.2,6.7,9.2,6.7c4.9,0.2,11-0.4,15.4-1.1
		c-2.4-2.8-8.5-11.3-10.3-14.2C131.5,298.5,125.6,302.1,121.9,305.1 M151.6,309.5c2.5-0.8,8.8-3.6,10.1-4.5
		c0.3-5.1,0.3-10.8,0.1-14.3c-6.6,0-15.9,1.9-21.2,4.2C143.6,299.9,147.8,305.3,151.6,309.5 M165.2,303.1c5-3.1,9.6-6.7,13-10.9
		c-2.9-0.7-9.4-1.6-12.6-1.4C165.5,290.8,165.4,298.5,165.2,303.1 M179.7,290.2c0.9-0.9,2.3-2.9,2.9-4.1c0.5-4.7,0.6-14.3,0.4-17.1
		c-5.7-2.3-14.4-4.1-20.8-4.6c2.1,7.6,3.1,18.9,3.3,22.5C168.5,287.2,176.2,288.8,179.7,290.2 M188,268.4c-0.3,0.9-1.8,1.8-2.6,1.6
		c0.1,1.6-0.3,9.4-0.7,12.5c1.1-2.2,3.2-7.8,3.8-10.1l0.9-3.5c0.9-2.9,3.7-13.1,1.1-26.4c-2.9-14.8-8.2-20.1-10.1-22.4
		c-4.8-2.6-12-4.9-12-4.9c6.5,8.8,8.8,13,12.7,23.5c2.3,1.2,6.4,3.5,6.9,4.1c0.4,0.5,0.4,1.4-0.9,1.4c-1.1,0-3.2-1-4.8-1.5
		c1.7,5.7,3,16.4,2.9,23.6C185.5,266.1,188.3,267.5,188,268.4 M177.1,215c-9.1-11.1-29.5-20.5-52.3-19.1c5.1,3.4,9.3,8.4,13.1,12.6
		c5.7-0.5,17.7,0.4,22.2,1.7c-0.8-0.9-1.7-1.8-1.9-2.3c-0.6-1.4,0.9-1.7,2.1-0.9c1.6,1,3.4,2.2,4.8,3.6
		C167.6,211.2,174.1,213.4,177.1,215 M182.9,265c-0.4-7.2-1.5-16.7-4.1-23.3c-7-2.8-16.6-4.6-25-4.7c2.6,6.1,5.6,16.2,7.1,22.7
		C166.9,260.4,176.4,262.2,182.9,265 M163.2,213.9c-6.3-1.1-15.6-1.9-22.5-1.5c4.7,6.5,8.1,12.1,11.3,20.2
		c8.7,0.2,20.5,2.8,25.3,4.7C174.5,229.6,169,219.8,163.2,213.9 M123.4,266.1c10.3-4.8,21.7-6.9,33.2-6.6
		c-3.1-10.8-4.9-15.8-7.6-22.4c-12.7,0.6-23.6,3.7-33.4,8.4C115.5,245.4,119.2,257.1,123.4,266.1 M157.7,264
		c-13-0.2-24.3,2.9-32,6.7c3.3,7.1,9.7,16.4,12.2,20.2c4.2-1.6,8.7-2.7,12.2-3.3c3.5-0.5,8.2-1.1,11.4-1
		C160.9,278.5,160,273,157.7,264 M114.1,241c9.4-4,19.5-7.2,33.2-8.3c-3.5-8.4-7.3-14.3-11.9-19.7c-10.1,0.8-19.3,3.5-27.3,6.8
		C109.3,226,111.5,233.5,114.1,241"/>
</g>
</svg>
