<svg height="64" viewBox="0 0 25.6 25.6" width="64" xmlns="http://www.w3.org/2000/svg" xmlns:xlink="http://www.w3.org/1999/xlink"><linearGradient id="a"><stop offset="0" stop-color="#589632"/><stop offset="1" stop-color="#93b023"/></linearGradient><linearGradient id="b" gradientTransform="matrix(.20021116 0 0 -.20021116 -60.167355 -18.625782)" gradientUnits="userSpaceOnUse" x1="365.46191" x2="363.59229" xlink:href="#a" y1="-221.14549" y2="-98.226997"/><linearGradient id="c" gradientTransform="matrix(1 0 0 -1 -300.5195 -92.5547)" gradientUnits="userSpaceOnUse" x1="402.52441" x2="400.64789" xlink:href="#a" y1="-220.87061" y2="-97.502296"/><g transform="matrix(.20021116 0 0 .20021116 0 -.0953)"><path d="m52.613 72.746 16 15.802v-18.923h18.278l-15.194-15h-19.084z" fill="#ee7913"/><path d="m107.143 126.625h19.47v-17.568l-32.125-31.432h-17.875v18.408z" fill="url(#c)"/><path d="m68.613 88.548 8 7.485v-18.408h17.875l-7.597-8h-18.278z" fill="#f0e64a"/></g><path d="m13.799154 20.236543c-.233246.04845-.354174.03143-.93799.03143-4.1776056 0-7.7305528-3.435223-7.7305528-7.889521 0-4.4542975 3.513906-7.8136405 7.7305528-7.8136405 4.216648 0 7.574589 3.3595433 7.574589 7.8136405 0 .724565-.09029 1.421299-.257071 2.081796l3.866678 3.866278c.996852-1.74704 1.55464-3.777782 1.55464-5.977702 0-6.8650403-5.478378-12.00526161-12.816718-12.00526161-7.3049041-.00020021-12.78328188 5.10618541-12.78328188 12.00506161 0 6.932311 5.47837778 12.140404 12.78308188 12.140404 1.885389 0 3.217193-.29411 4.613266-.752994z" fill="url(#b)" stroke-width=".200211"/><path d="m126.613 109.057v17.568l-73.53-72h18.614z" fill="#fff" opacity=".15" transform="matrix(.20021116 0 0 .20021116 0 -.0953)"/></svg>